# AST/ASF file generated using VICON BodyLanguage
# -----------------------------------------------
:version 1.10
:name VICON
:units
  mass 1.0
  length 0.45
  angle deg
:documentation
   .ast/.asf automatically generated from VICON data using
   VICON BodyBuilder and BodyLanguage model FoxedUp or BRILLIANT.MOD
:root
   order TX TY TZ RX RY RZ
   axis XYZ
   position 0 0 0  
   orientation 0 0 0 
:bonedata
  begin
     id 1 
     name lhipjoint
     direction 0.624716 -0.669793 0.401383 
     length 2.38238 
     axis 0 0 0  XYZ
  end
  begin
     id 2 
     name lfemur
     direction 0.34202 -0.939693 0  
     length 6.4574  
     axis 0 0 20  XYZ
    dof rx ry rz
    limits (-160.0 20.0)
           (-70.0 70.0)
           (-60.0 70.0)
  end
  begin
     id 3 
     name ltibia
     direction 0.34202 -0.939693 0   
     length 7.68739   
     axis 0 0 20   XYZ
    dof rx
    limits (-10.0 170.0)
  end
  begin
     id 4 
     name lfoot
     direction 0.0681309 -0.187188 0.979959   
     length 2.46615   
     axis -90 7.62852e-016 20   XYZ
    dof rx rz
    limits (-45.0 90.0)
           (-70.0 20.0)
  end
  begin
     id 5 
     name ltoes
     direction 1.53566e-011 -4.21819e-011 1   
     length 1.2376   
     axis -90 7.62852e-016 20   XYZ
    dof rx
    limits (-90.0 20.0)
  end
  begin
     id 6 
     name rhipjoint
     direction -0.644473 -0.655875 0.393043   
     length 2.43293  
     axis 0 0 0  XYZ 
  end
  begin
     id 7 
     name rfemur
     direction -0.34202 -0.939693 0   
     length 6.7025   
     axis 0 0 -20   XYZ
    dof rx ry rz
    limits (-160.0 20.0)
           (-70.0 70.0)
           (-70.0 60.0)
  end
  begin
     id 8 
     name rtibia
     direction -0.34202 -0.939693 0   
     length 7.80547   
     axis 0 0 -20   XYZ
    dof rx
    limits (-10.0 170.0)
 end
 begin
     id 9 
     name rfoot
     direction -0.0756734 -0.207911 0.975216   
     length 2.40315  
     axis -90 -7.62852e-016 -20   XYZ
    dof rx rz
    limits (-45.0 90.0)
           (-20.0 70.0)
  end
  begin
     id 10 
     name rtoes
     direction -1.5353e-011 -4.21879e-011 1   
     length 1.20477   
     axis -90 -7.62852e-016 -20   XYZ
    dof rx
    limits (-90.0 20.0)
  end
  begin
     id 11 
     name lowerback
     direction 0.0160353 0.987463 -0.157037   
     length 2.18572   
     axis 0 0 0   XYZ
    dof rx ry rz
    limits (-20.0 45.0)
           (-30.0 30.0)
           (-30.0 30.0)
  end
  begin
     id 12 
     name upperback
     direction -0.00499661 0.999756 0.0215076   
     length 2.18016   
     axis 0 0 0   XYZ
    dof rx ry rz
    limits (-20.0 45.0)
           (-30.0 30.0)
           (-30.0 30.0)
  end
  begin
     id 13 
     name thorax
     direction -0.00921346 0.995333 0.0960619   
     length 2.24923   
     axis 0 0 0   XYZ
    dof rx ry rz
    limits (-20.0 45.0)
           (-30.0 30.0)
           (-30.0 30.0)
  end
  begin
     id 14 
     name lowerneck
     direction 0.0274184 0.991181 0.12965   
     length 1.70911   
     axis 0 0 0   XYZ
    dof rx ry rz
    limits (-20.0 45.0)
           (-30.0 30.0)
           (-30.0 30.0)
  end
  begin
     id 15 
     name upperneck
     direction 0.0015627 0.999959 -0.00893559   
     length 1.69312   
     axis 0 0 0   XYZ
    dof rx ry rz
    limits (-20.0 45.0)
           (-30.0 30.0)
           (-30.0 30.0)
  end
  begin
     id 16
     name head
     direction -0.00230242 0.999856 -0.0168327  
     length 1.80241  
     axis 0 0 0   XYZ
    dof rx ry rz
    limits (-20.0 45.0)
           (-30.0 30.0)
           (-30.0 30.0)
  end
  begin
     id 17 
     name lclavicle
     direction 0.955523 0.290741 -0.0494489  
     length 3.84275  
     axis 0 0 0   XYZ
    dof ry rz
    limits (-20.0 10.0)
           (0.0 20.0)
  end
  begin
     id 18 
     name lhumerus
     direction 1 -4.48967e-011 -3.18382e-028   
     length 5.17714   
     axis 180 -30 -90   XYZ
    dof rx ry rz
    limits (-60.0 90.0)
           (-90.0 90.0)
           (-90.0 90.0)
  end
  begin
     id 19
     name lradius
     direction 1 -4.48968e-011 -2.22911e-027   
     length 3.43679   
     axis 180 -30 -90   XYZ
    dof rx
    limits (-10.0 170.0)
  end
  begin
     id 20
     name lwrist
     direction 1 -4.48951e-011 -6.32245e-027   
     length 1.7184   
     axis 3.57107e-015 90 90   XYZ
    dof ry
    limits (-180.0 0.0)
 end
  begin
     id 21 
     name lhand
     direction 1 -4.48924e-011 -1.26431e-026   
     length 0.573117   
     axis 8.06912e-015 90 90   XYZ
    dof rx rz
    limits (-90.0 90.0)
           (-45.0 45.0)
  end
  begin
     id 22 
     name lfingers
     direction 1 -4.49001e-011 -2.52965e-026   
     length 0.462062   
     axis 1.61381e-014 90 90   XYZ
    dof rx
    limits (0.0 90.0)
  end
  begin
     id 23
     name lthumb
     direction 0.707107 -6.35008e-011 0.707107   
     length 0.663431   
     axis -90 45 -1.62303e-014   XYZ
    dof rx rz
    limits (-45.0 45.0)
           (-45.0 45.0)
  end
  begin
     id 24 
     name rclavicle
     direction -0.963917 0.256881 -0.0698287   
     length 3.73057  
     axis 0 0 0   XYZ 
    dof ry rz
    limits (-10.0 20.0)
           (-20.0 0.0)
  end
  begin
     id 25 
     name rhumerus
     direction -1 -4.48962e-011 -2.73982e-027  
     length 5.23908   
     axis 180 30 90   XYZ
    dof rx ry rz
    limits (-90.0 60.0)
           (-90.0 90.0)
           (-90.0 90.0)
  end
  begin
     id 26 
     name rradius
     direction -1 -4.48968e-011 -4.33218e-027   
     length 3.46485   
     axis 180 30 90   XYZ
    dof rx
    limits (-10.0 170.0)
  end
  begin
     id 27 
     name rwrist
     direction -1 -4.48989e-011 -6.32372e-027   
     length 1.73243   
     axis 3.57107e-015 -90 -90   XYZ
    dof ry
    limits (-180.0 0.0)
  end
  begin
     id 28
     name rhand
     direction -1 -4.48948e-011 -1.26448e-026   
     length 0.608752   
     axis 8.06912e-015 -90 -90   XYZ
    dof rx rz
    limits (-90.0 90.0)
           (-45.0 45.0)
  end
  begin
     id 29
     name rfingers
     direction -1 -4.48962e-011 -2.52913e-026   
     length 0.490792   
     axis 1.61381e-014 -90 -90   XYZ
    dof rx
    limits (0.0 90.0)
  end
  begin
     id 30
     name rthumb
     direction -0.707107 -6.34878e-011 0.707107   
     length 0.704682   
     axis -90 -45 1.62303e-014   XYZ
    dof rx rz
    limits (-45.0 45.0)
           (-45.0 45.0)
  end
:hierarchy
  begin
    root lhipjoint rhipjoint lowerback
    lhipjoint lfemur
    lfemur ltibia
    ltibia lfoot
    lfoot ltoes
    rhipjoint rfemur
    rfemur rtibia
    rtibia rfoot
    rfoot rtoes
    lowerback upperback
    upperback thorax
    thorax lowerneck lclavicle rclavicle
    lowerneck upperneck
    upperneck head
    lclavicle lhumerus
    lhumerus lradius
    lradius lwrist
    lwrist lhand lthumb
    lhand lfingers
    rclavicle rhumerus
    rhumerus rradius
    rradius rwrist
    rwrist rhand rthumb
    rhand rfingers
  end

#!OML:ASF G:\JayActor3\Patient Classification 1\Patient 1\Session 6\male.ASF
:FULLY-SPECIFIED
:DEGREES
1
root 48.9196 16.0537 18.4199 179.693 -47.0354 -174.294
lowerback -4.79797 -0.364014 4.41294
upperback 1.60742 -0.836714 0.963153
thorax 4.31206 -0.319179 -1.54958
lowerneck -0.557095 4.59603 3.62498
upperneck -7.3286 5.93905 -2.14397
head -2.02712 2.85226 -1.37337
rclavicle -3.68218e-014 -5.01931e-015
rhumerus -33.1768 -6.6543 -83.7782
rradius 28.6556
rwrist 1.50373
rhand -19.6057 -5.00969
rfingers 7.12502
rthumb 6.72045 -34.883
lclavicle -3.68218e-014 -5.01931e-015
lhumerus -26.5044 14.174 82.2762
lradius 19.5578
lwrist 13.3478
lhand -15.5382 7.39126
lfingers 7.12502
lthumb 10.6456 37.1016
rfemur -13.8568 -0.739944 28.3172
rtibia 34.6129
rfoot -25.7197 -14.5123
rtoes 2.2734
lfemur -11.4289 9.21973 -16.8557
ltibia 28.9592
lfoot -20.9958 3.08141
ltoes 0.464959
2
root 48.9199 16.0531 18.421 179.712 -47.014 -174.326
lowerback -5.05327 -0.316641 4.64878
upperback 1.81408 -0.802288 0.78789
thorax 4.67014 -0.281478 -1.86397
lowerneck -0.360606 4.70154 4.86704
upperneck -7.74429 6.01211 -3.59594
head -2.12206 2.88357 -2.07177
rclavicle 4.40929e-014 -3.18055e-015
rhumerus -32.9165 -7.10455 -83.8886
rradius 28.4628
rwrist 1.79147
rhand -19.8483 -4.84079
rfingers 7.12502
rthumb 6.48628 -34.7215
lclavicle 4.40929e-014 -3.18055e-015
lhumerus -26.4065 14.1365 82.023
lradius 19.4095
lwrist 13.3837
lhand -15.4412 7.30691
lfingers 7.12502
lthumb 10.7392 37.0124
rfemur -13.8701 -0.744448 28.2949
rtibia 34.6278
rfoot -25.6405 -14.6079
rtoes 1.89495
lfemur -11.4163 9.25332 -16.8801
ltibia 28.9444
lfoot -20.962 3.11174
ltoes 0.214095
3
root 48.919 16.0533 18.4217 179.724 -47.0022 -174.351
lowerback -5.44603 -0.245784 5.0756
upperback 2.09631 -0.753536 0.452362
thorax 5.1853 -0.220216 -2.45316
lowerneck -0.466229 4.82984 5.6288
upperneck -7.93174 6.15465 -4.04196
head -2.12525 2.93743 -2.35377
rclavicle 7.83087e-014 -3.67752e-015
rhumerus -32.5405 -7.71121 -84.2777
rradius 28.3172
rwrist 2.02316
rhand -19.8156 -5.22693
rfingers 7.12502
rthumb 6.51782 -35.1066
lclavicle 7.83087e-014 -3.67752e-015
lhumerus -26.2134 14.0095 81.5646
lradius 19.3526
lwrist 13.3774
lhand -15.4526 7.50934
lfingers 7.12502
lthumb 10.7282 37.2154
rfemur -13.8657 -0.721558 28.2688
rtibia 34.6478
rfoot -25.6847 -14.5636
rtoes 2.07772
lfemur -11.3986 9.27473 -16.9004
ltibia 28.9277
lfoot -20.9442 3.12616
ltoes 0.011718
4
root 48.9187 16.0531 18.4228 179.766 -47.0111 -174.373
lowerback -5.33102 -0.235045 4.98424
upperback 1.99243 -0.725142 0.521204
thorax 5.01435 -0.216442 -2.32576
lowerneck -0.317242 4.92091 5.53452
upperneck -7.98369 6.2856 -4.02416
head -2.16531 3.00629 -2.33888
rclavicle -3.87009e-014 -2.09718e-014
rhumerus -32.7614 -8.11695 -83.839
rradius 28.2041
rwrist 3.11712
rhand -18.8074 -5.05365
rfingers 7.12502
rthumb 7.49101 -34.901
lclavicle -3.87009e-014 -2.09718e-014
lhumerus -26.7555 14.2161 81.4737
lradius 19.5537
lwrist 13.3458
lhand -15.3589 7.83107
lfingers 7.12502
lthumb 10.8186 37.5324
rfemur -13.9098 -0.74433 28.2489
rtibia 34.6671
rfoot -25.7842 -14.4985
rtoes 2.19694
lfemur -11.4237 9.25744 -16.9261
ltibia 28.912
lfoot -20.9213 3.13138
ltoes 0.0499708
5
root 48.9183 16.0531 18.4237 179.794 -47.011 -174.4
lowerback -5.39169 -0.206402 5.06164
upperback 2.03192 -0.694166 0.45877
thorax 5.09156 -0.19469 -2.43204
lowerneck -0.239375 5.0275 5.81943
upperneck -8.10814 6.41715 -4.30834
head -2.1971 3.06907 -2.49025
rclavicle 2.75317e-014 5.36719e-015
rhumerus -32.7546 -8.53485 -83.7062
rradius 28.0756
rwrist 3.78081
rhand -18.3461 -5.04962
rfingers 7.12502
rthumb 7.93627 -34.8806
lclavicle 2.75317e-014 5.36719e-015
lhumerus -27.003 14.2357 81.297
lradius 19.6328
lwrist 13.4082
lhand -15.3802 7.92094
lfingers 7.12502
lthumb 10.7981 37.6234
rfemur -13.9306 -0.748698 28.2244
rtibia 34.6865
rfoot -25.8603 -14.459
rtoes 2.25297
lfemur -11.4262 9.25989 -16.9518
ltibia 28.8954
lfoot -20.8943 3.14395
ltoes -0.0593476
6
root 48.9177 16.0531 18.4246 179.818 -47.0118 -174.428
lowerback -5.4043 -0.18309 5.09357
upperback 2.04266 -0.664889 0.430132
thorax 5.11187 -0.177831 -2.47715
lowerneck -0.167936 5.13381 5.97652
upperneck -8.19641 6.55441 -4.47493
head -2.22198 3.13623 -2.57934
rclavicle 3.97197e-014 -7.65321e-015
rhumerus -32.792 -8.87736 -83.5407
rradius 27.9605
rwrist 4.35698
rhand -17.9384 -5.03921
rfingers 7.12502
rthumb 8.32979 -34.855
lclavicle 3.97197e-014 -7.65321e-015
lhumerus -27.29 14.26 81.1593
lradius 19.7163
lwrist 13.4987
lhand -15.438 7.94783
lfingers 7.12502
lthumb 10.7423 37.6532
rfemur -13.9439 -0.754234 28.1988
rtibia 34.7054
rfoot -25.9435 -14.4165
rtoes 2.31353
lfemur -11.4218 9.25601 -16.978
ltibia 28.8805
lfoot -20.8742 3.15539
ltoes -0.130863
7
root 48.917 16.0529 18.4253 179.837 -47.0134 -174.458
lowerback -5.38202 -0.165708 5.08979
upperback 2.03351 -0.639632 0.429744
thorax 5.09161 -0.166098 -2.47276
lowerneck -0.077582 5.24127 6.06477
upperneck -8.28159 6.69587 -4.60368
head -2.25178 3.20699 -2.64459
rclavicle 4.9075e-015 -1.94809e-014
rhumerus -32.8584 -9.12125 -83.3677
rradius 27.856
rwrist 4.77672
rhand -17.67 -4.99914
rfingers 7.12502
rthumb 8.58881 -34.8044
lclavicle 4.9075e-015 -1.94809e-014
lhumerus -27.592 14.2933 81.0554
lradius 19.7806
lwrist 13.6136
lhand -15.4989 7.94708
lfingers 7.12502
lthumb 10.6835 37.6555
rfemur -13.9503 -0.759079 28.1724
rtibia 34.7226
rfoot -26.0174 -14.3845
rtoes 2.34936
lfemur -11.4101 9.24973 -17.0048
ltibia 28.8654
lfoot -20.8542 3.17167
ltoes -0.227648
8
root 48.9164 16.0527 18.4259 179.853 -47.0192 -174.488
lowerback -5.35954 -0.149026 5.08116
upperback 2.02555 -0.615195 0.432678
thorax 5.07248 -0.154956 -2.46229
lowerneck 0.0228108 5.34678 6.13658
upperneck -8.38221 6.83547 -4.7158
head -2.28941 3.27665 -2.7025
rclavicle 6.81831e-014 -1.51076e-014
rhumerus -32.9194 -9.30211 -83.2282
rradius 27.7618
rwrist 5.03507
rhand -17.5301 -4.9792
rfingers 7.12502
rthumb 8.72386 -34.7789
lclavicle 6.81831e-014 -1.51076e-014
lhumerus -27.869 14.3257 80.9587
lradius 19.8218
lwrist 13.7402
lhand -15.5576 7.89206
lfingers 7.12502
lthumb 10.6269 37.6034
rfemur -13.9528 -0.761488 28.1477
rtibia 34.7389
rfoot -26.0738 -14.3686
rtoes 2.3669
lfemur -11.3966 9.24264 -17.0299
ltibia 28.8509
lfoot -20.8374 3.17989
ltoes -0.295583
9
root 48.9158 16.0524 18.4264 179.863 -47.0274 -174.517
lowerback -5.33454 -0.131094 5.0738
upperback 2.01707 -0.588974 0.434901
thorax 5.05149 -0.142927 -2.45309
lowerneck 0.138335 5.44676 6.1988
upperneck -8.49838 6.96897 -4.81199
head -2.33596 3.34301 -2.75478
rclavicle -2.58544e-014 -1.2921e-015
rhumerus -32.9831 -9.41247 -83.1318
rradius 27.681
rwrist 5.09871
rhand -17.5367 -4.97027
rfingers 7.12502
rthumb 8.71744 -34.7703
lclavicle -2.58544e-014 -1.2921e-015
lhumerus -28.1326 14.3794 80.8562
lradius 19.849
lwrist 13.8533
lhand -15.6062 7.8249
lfingers 7.12502
lthumb 10.58 37.5386
rfemur -13.95 -0.766222 28.1236
rtibia 34.7549
rfoot -26.1109 -14.365
rtoes 2.36539
lfemur -11.3778 9.23138 -17.0539
ltibia 28.8368
lfoot -20.8175 3.19386
ltoes -0.401699
10
root 48.9153 16.0521 18.4268 179.875 -47.042 -174.543
lowerback -5.30901 -0.114451 5.06397
upperback 2.00415 -0.564251 0.440091
thorax 5.02546 -0.131968 -2.43957
lowerneck 0.281691 5.53789 6.24339
upperneck -8.65602 7.09196 -4.88344
head -2.40335 3.40333 -2.79848
rclavicle 7.54015e-014 1.21259e-014
rhumerus -33.0492 -9.51131 -83.0347
rradius 27.6055
rwrist 5.15463
rhand -17.5119 -4.95291
rfingers 7.12502
rthumb 8.74136 -34.7519
lclavicle 7.54015e-014 1.21259e-014
lhumerus -28.3925 14.4682 80.7458
lradius 19.8791
lwrist 13.9397
lhand -15.6156 7.74073
lfingers 7.12502
lthumb 10.571 37.4549
rfemur -13.9502 -0.76855 28.1024
rtibia 34.7704
rfoot -26.1298 -14.3729
rtoes 2.3683
lfemur -11.3645 9.21987 -17.076
ltibia 28.8232
lfoot -20.8026 3.19412
ltoes -0.436203
